<svg width="24" height="24"  fill="none" xmlns="http://www.w3.org/2000/svg">
<g clip-path="url(#clip0_10674_17411)">
<path d="M12.9398 12L18.4665 6.47329C18.5757 6.34576 18.6328 6.18171 18.6263 6.01393C18.6198 5.84614 18.5503 5.68698 18.4315 5.56825C18.3128 5.44952 18.1536 5.37997 17.9859 5.37349C17.8181 5.36701 17.654 5.42408 17.5265 5.53329L11.9998 11.06L6.47315 5.52663C6.34762 5.40109 6.17735 5.33057 5.99982 5.33057C5.82228 5.33057 5.65202 5.40109 5.52649 5.52663C5.40095 5.65216 5.33042 5.82243 5.33042 5.99996C5.33042 6.1775 5.40095 6.34776 5.52649 6.47329L11.0598 12L5.52649 17.5266C5.4567 17.5864 5.40002 17.6599 5.36 17.7426C5.31999 17.8254 5.2975 17.9154 5.29395 18.0073C5.29041 18.0991 5.30588 18.1906 5.33939 18.2762C5.37291 18.3617 5.42375 18.4394 5.48872 18.5044C5.55369 18.5694 5.63139 18.6202 5.71694 18.6537C5.80249 18.6872 5.89404 18.7027 5.98585 18.6992C6.07767 18.6956 6.16776 18.6731 6.25047 18.6331C6.33318 18.5931 6.40672 18.5364 6.46649 18.4666L11.9998 12.94L17.5265 18.4666C17.654 18.5758 17.8181 18.6329 17.9859 18.6264C18.1536 18.62 18.3128 18.5504 18.4315 18.4317C18.5503 18.3129 18.6198 18.1538 18.6263 17.986C18.6328 17.8182 18.5757 17.6542 18.4665 17.5266L12.9398 12Z" fill="#131313"/>
</g>
<defs>
<clipPath id="clip0_10674_17411">
<rect width="24" height="24" fill="white"/>
</clipPath>
</defs>
</svg>
