<svg aria-hidden="true" style="width:0;height:0;position:absolute;overflow:hidden" xmlns="http://www.w3.org/2000/svg"><defs><symbol id="icon-moon" viewBox="0 0 32 32"><path fill="none" stroke="#fff" style="stroke:var(--color1,#fff)" stroke-linejoin="round" stroke-linecap="round" stroke-width="2.133" d="M2.189 16.585c.515 7.14 6.772 12.948 14.261 13.267 5.283.222 10.008-2.163 12.843-5.92 1.174-1.539.544-2.565-1.417-2.218-.959.166-1.947.236-2.978.194-7.002-.277-12.729-5.947-12.757-12.643a11.998 11.998 0 0 1 1.074-5.06c.773-1.719-.157-2.537-1.947-1.802-5.67 2.315-9.55 7.847-9.078 14.182z"/></symbol><symbol id="icon-spher-moon" viewBox="0 0 32 32"><path fill="#fff" style="fill:var(--color1,#fff)" d="M4.708 4.708c6.26-6.26 16.391-6.28 22.627-.043s6.217 16.367-.043 22.627c-6.26 6.26-16.391 6.28-22.627.043s-6.217-16.367.043-22.627z"/><path fill="none" stroke="#000" style="stroke:var(--color2,#000)" stroke-linecap="round" stroke-width="2.133" d="M25.203 6.354c5.118 5.47 5.099 14.358-.043 19.853"/></symbol><symbol id="icon-spher-sun" viewBox="0 0 32 32"><path fill="#fff" style="fill:var(--color1,#fff)" d="M27.292 4.708c-6.26-6.26-16.391-6.28-22.627-.043s-6.217 16.367.043 22.627c6.26 6.26 16.391 6.28 22.627.043s6.217-16.367-.043-22.627z"/><path fill="none" stroke="#000" style="stroke:var(--color2,#000)" stroke-linecap="round" stroke-width="2.133" d="M6.797 6.354c-5.118 5.47-5.099 14.358.043 19.853"/></symbol><symbol id="icon-sun" viewBox="0 0 32 32"><path fill="none" stroke="#fff" style="stroke:var(--color1,#fff)" stroke-linejoin="round" stroke-linecap="round" stroke-width="2" d="M16 26c5.523 0 10-4.477 10-10S21.523 6 16 6 6 10.477 6 16s4.477 10 10 10z"/><path fill="none" stroke="#fff" style="stroke:var(--color1,#fff)" stroke-linejoin="round" stroke-linecap="round" stroke-width="3" d="m25.814 6.186.182-.182M6.004 25.996l.182-.182M16 2.112V2m0 28v-.112M2.112 16H2m28 0h-.112M6.186 6.186l-.182-.182m19.992 19.992-.182-.182"/></symbol><symbol id="icon-close" viewBox="0 0 18 18"><path d="M15 4.108 13.892 3 9.5 7.392 5.108 3 4 4.108 8.392 8.5 4 12.892 5.108 14 9.5 9.608 13.892 14 15 12.892 10.608 8.5 15 4.108Z"/></symbol><symbol id="icon-heart" viewBox="0 0 34 32"><path fill="#f87719" style="fill:var(--color4,#f87719)" d="m17.231 31.705-2.412-2.412C5.859 21.367.001 16.025.001 9.478.001 4.136 4.136.001 9.478.001c2.929 0 5.858 1.378 7.754 3.618 1.895-2.24 4.825-3.618 7.754-3.618 5.342 0 9.477 4.135 9.477 9.477 0 6.548-5.858 11.889-14.818 19.815l-2.412 2.412z"/></symbol><symbol id="icon-search" viewBox="0 0 32 32"><path d="m31.008 27.231-7.58-6.447c-.784-.705-1.622-1.029-2.299-.998a11.954 11.954 0 0 0 2.87-7.787c0-6.627-5.373-12-12-12s-12 5.373-12 12 5.373 12 12 12c2.972 0 5.691-1.081 7.787-2.87-.031.677.293 1.515.998 2.299l6.447 7.58c1.104 1.226 2.907 1.33 4.007.23s.997-2.903-.23-4.007zM12 20a8 8 0 1 1 0-16 8 8 0 0 1 0 16z"/></symbol><symbol id="icon-heart" viewBox="0 0 34 32"><path fill="#f87719" style="fill:var(--color1,#f87719)" d="m17.231 31.705-2.412-2.412C5.859 21.367.001 16.025.001 9.478.001 4.136 4.136.001 9.478.001c2.929 0 5.858 1.378 7.754 3.618 1.895-2.24 4.825-3.618 7.754-3.618 5.342 0 9.477 4.135 9.477 9.477 0 6.548-5.858 11.889-14.818 19.815l-2.412 2.412z"/></symbol><symbol id="icon-Ellipse-2" viewBox="0 0 13 32"><path stroke-linecap="round" stroke-width="3.2" d="M4.193 3.795c6.868 6.797 6.863 17.82-.011 24.622"/></symbol><svg id="icon-close2" width="19" height="19" viewBox="0 0 12 12" xmlns="http://www.w3.org/2000/svg"><path d="m6.783 6 4.606-4.606a.556.556 0 0 0-.784-.783L6 5.217 1.394.606a.558.558 0 1 0-.789.788L5.216 6l-4.61 4.605a.556.556 0 1 0 .783.784l4.61-4.606 4.606 4.606a.556.556 0 0 0 .784-.784L6.783 6Z"/><symbol id="github-mark" viewBox="0 0 33 32"><path d="M16.285 0C7.28 0 0 7.333 0 16.406c0 7.252 4.664 13.391 11.135 15.563.809.163 1.105-.353 1.105-.787 0-.38-.027-1.684-.027-3.042-4.53.978-5.473-1.956-5.473-1.956-.728-1.901-1.807-2.39-1.807-2.39-1.483-1.005.108-1.005.108-1.005 1.645.109 2.508 1.684 2.508 1.684 1.456 2.499 3.801 1.793 4.745 1.358.135-1.059.566-1.793 1.025-2.2-3.613-.38-7.414-1.793-7.414-8.094 0-1.793.647-3.259 1.671-4.4-.162-.407-.728-2.092.162-4.346 0 0 1.375-.435 4.475 1.684a15.282 15.282 0 0 1 4.07-.543h.001c1.375 0 2.777.19 4.071.543 3.101-2.119 4.476-1.684 4.476-1.684.89 2.254.323 3.939.162 4.346 1.052 1.141 1.672 2.607 1.672 4.4 0 6.302-3.801 7.687-7.441 8.094.593.516 1.105 1.494 1.105 3.042 0 2.2-.027 3.966-.027 4.509 0 .435.297.951 1.105.788 6.471-2.173 11.135-8.312 11.135-15.564C32.569 7.334 25.262 0 16.284 0z"/></symbol><symbol id="icon-telegram" viewBox="0 0 32 32"><path d="M29.528 4.193c-.48-.407-1.234-.465-2.013-.152h-.001c-.82.329-23.207 9.932-24.118 10.324-.166.058-1.613.598-1.464 1.801.133 1.085 1.297 1.534 1.439 1.586l5.692 1.949c.378 1.257 1.77 5.894 2.077 6.885.192.618.505 1.429 1.053 1.596.481.186.96.016 1.27-.227l3.48-3.228 5.617 4.381.134.08c.381.169.747.253 1.096.253.269 0 .528-.051.775-.152.842-.346 1.178-1.148 1.213-1.238l4.196-21.809c.256-1.165-.1-1.757-.444-2.049zM14.08 20.48l-1.92 5.12-1.92-6.4L24.96 8.32 14.08 20.48z"/></symbol></svg></defs></svg>