<svg xmlns="http://www.w3.org/2000/svg" width="60" height="24" fill="none"><rect width="60" height="24" fill="url(#a)" rx="12"/><path fill="#fff" d="M18.352 5.648c-3.522-3.521-9.22-3.532-12.728-.024-3.508 3.508-3.497 9.206.024 12.728 3.522 3.521 9.22 3.532 12.728.024 3.508-3.508 3.497-9.206-.024-12.728Z"/><path stroke="url(#b)" stroke-linecap="round" stroke-width="1.2" d="M6.824 6.574c-2.88 3.077-2.869 8.077.024 11.168"/><path stroke="#fff" stroke-linecap="round" stroke-linejoin="round" d="M49 17a5 5 0 1 0 0-10 5 5 0 0 0 0 10Z"/><path stroke="#fff" stroke-linecap="round" stroke-linejoin="round" stroke-width="1.5" d="m53.907 7.093.091-.091m-9.996 9.996.091-.091M49 5.056V5m0 14v-.056M42.056 12H42m14 0h-.056M44.093 7.093l-.091-.091m9.996 9.996-.091-.091"/><defs><linearGradient id="a" x1="7.329" x2="17.73" y1="1.715" y2="34.081" gradientUnits="userSpaceOnUse"><stop stop-color="#FFC226"/><stop offset="1" stop-color="#F84119"/></linearGradient><linearGradient id="b" x1="6.582" x2="2.775" y1="7.372" y2="8.296" gradientUnits="userSpaceOnUse"><stop stop-color="#FFC226"/><stop offset="1" stop-color="#F84119"/></linearGradient></defs></svg>