<svg width="12" height="12" fill="none" xmlns="http://www.w3.org/2000/svg">
<path d="M3.1912 1.22012C3.06877 1.3611 3 1.55229 3 1.75163C3 1.95098 3.06877 2.14217 3.1912 2.28315L6.42372 6.00454L3.1912 9.72592C3.07224 9.86771 3.00642 10.0576 3.00791 10.2547C3.0094 10.4519 3.07808 10.6404 3.19915 10.7798C3.32023 10.9192 3.48402 10.9983 3.65524 11C3.82647 11.0017 3.99143 10.9259 4.11459 10.789L7.8088 6.53606C7.93123 6.39508 8 6.20389 8 6.00454C8 5.80519 7.93123 5.614 7.8088 5.47302L4.11459 1.22012C3.99213 1.07918 3.82606 1 3.65289 1C3.47973 1 3.31366 1.07918 3.1912 1.22012Z" fill="black"/>
</svg>
