<svg aria-hidden="true" style="position: absolute; width: 0; height: 0; overflow: hidden;" version="1.1" xmlns="http://www.w3.org/2000/svg" xmlns:xlink="http://www.w3.org/1999/xlink">
<defs>
<symbol id="icon-moon" viewBox="0 0 32 32">
<path fill="none" stroke="#fff" style="stroke: var(--color1, #fff)" stroke-linejoin="round" stroke-linecap="round" stroke-miterlimit="4" stroke-width="2.1333" d="M2.189 16.585c0.515 7.14 6.772 12.948 14.261 13.267 5.283 0.222 10.008-2.163 12.843-5.92 1.174-1.539 0.544-2.565-1.417-2.218-0.959 0.166-1.947 0.236-2.978 0.194-7.002-0.277-12.729-5.947-12.757-12.643-0.014-1.802 0.372-3.507 1.074-5.060 0.773-1.719-0.157-2.537-1.947-1.802-5.67 2.315-9.55 7.847-9.078 14.182z"></path>
</symbol>
<symbol id="icon-spher-moon" viewBox="0 0 32 32">
<path fill="#fff" style="fill: var(--color1, #fff)" d="M4.708 4.708c6.26-6.26 16.391-6.28 22.627-0.043s6.217 16.367-0.043 22.627c-6.26 6.26-16.391 6.28-22.627 0.043s-6.217-16.367 0.043-22.627z"></path>
<path fill="none" stroke="#000" style="stroke: var(--color2, #000)" stroke-linejoin="miter" stroke-linecap="round" stroke-miterlimit="4" stroke-width="2.1333" d="M25.203 6.354c5.118 5.47 5.099 14.358-0.043 19.853"></path>
</symbol>
<symbol id="icon-spher-sun" viewBox="0 0 32 32">
<path fill="#fff" style="fill: var(--color1, #fff)" d="M27.292 4.708c-6.26-6.26-16.391-6.28-22.627-0.043s-6.217 16.367 0.043 22.627c6.26 6.26 16.391 6.28 22.627 0.043s6.217-16.367-0.043-22.627z"></path>
<path fill="none" stroke="#000" style="stroke: var(--color2, #000)" stroke-linejoin="miter" stroke-linecap="round" stroke-miterlimit="4" stroke-width="2.1333" d="M6.797 6.354c-5.118 5.47-5.099 14.358 0.043 19.853"></path>
</symbol>
<symbol id="icon-sun" viewBox="0 0 32 32">
<path fill="none" stroke="#fff" style="stroke: var(--color1, #fff)" stroke-linejoin="round" stroke-linecap="round" stroke-miterlimit="4" stroke-width="2" d="M16 26c5.523 0 10-4.477 10-10s-4.477-10-10-10c-5.523 0-10 4.477-10 10s4.477 10 10 10z"></path>
<path fill="none" stroke="#fff" style="stroke: var(--color1, #fff)" stroke-linejoin="round" stroke-linecap="round" stroke-miterlimit="4" stroke-width="3" d="M25.814 6.186l0.182-0.182M6.004 25.996l0.182-0.182M16 2.112v-0.112M16 30v-0.112M2.112 16h-0.112M30 16h-0.112M6.186 6.186l-0.182-0.182M25.996 25.996l-0.182-0.182"></path>
</symbol>
<symbol id="icon-close" viewBox="0 0 32 32">
<path fill="none" stroke="#f8f8f8" style="stroke: var(--color3, #f8f8f8)" stroke-linejoin="round" stroke-linecap="round" stroke-miterlimit="4" stroke-width="1.3333" d="M23 23l-14-14M23 9l-14 14"></path>
</symbol>
<symbol id="icon-heart" viewBox="0 0 34 32">
<path fill="#f87719" style="fill: var(--color4, #f87719)" d="M17.231 31.705l-2.412-2.412c-8.96-7.926-14.818-13.268-14.818-19.815 0-5.342 4.135-9.477 9.477-9.477 2.929 0 5.858 1.378 7.754 3.618 1.895-2.24 4.825-3.618 7.754-3.618 5.342 0 9.477 4.135 9.477 9.477 0 6.548-5.858 11.889-14.818 19.815l-2.412 2.412z"></path>
</symbol>
<symbol id="icon-search" viewBox="0 0 32 32">
<path d="M31.008 27.231l-7.58-6.447c-0.784-0.705-1.622-1.029-2.299-0.998 1.789-2.096 2.87-4.815 2.87-7.787 0-6.627-5.373-12-12-12s-12 5.373-12 12 5.373 12 12 12c2.972 0 5.691-1.081 7.787-2.87-0.031 0.677 0.293 1.515 0.998 2.299l6.447 7.58c1.104 1.226 2.907 1.33 4.007 0.23s0.997-2.903-0.23-4.007zM12 20c-4.418 0-8-3.582-8-8s3.582-8 8-8 8 3.582 8 8-3.582 8-8 8z"></path>
</symbol>
<symbol id="icon-heart" viewBox="0 0 34 32">
<path fill="#f87719" style="fill: var(--color1, #f87719)" d="M17.231 31.705l-2.412-2.412c-8.96-7.926-14.818-13.268-14.818-19.815 0-5.342 4.135-9.477 9.477-9.477 2.929 0 5.858 1.378 7.754 3.618 1.895-2.24 4.825-3.618 7.754-3.618 5.342 0 9.477 4.135 9.477 9.477 0 6.548-5.858 11.889-14.818 19.815l-2.412 2.412z"></path>
</symbol>
</defs>
</svg>
