<svg aria-hidden="true" style="position: absolute; width: 0; height: 0; overflow: hidden;" version="1.1"
  xmlns="http://www.w3.org/2000/svg" xmlns:xlink="http://www.w3.org/1999/xlink">
  <defs>

    <symbol id="icon-moon" viewBox="0 0 32 32">
      <path fill="none" stroke="#fff" style="stroke: var(--color1, #fff)" stroke-linejoin="round" stroke-linecap="round"
        stroke-miterlimit="4" stroke-width="2.1333"
        d="M2.189 16.585c0.515 7.14 6.772 12.948 14.261 13.267 5.283 0.222 10.008-2.163 12.843-5.92 1.174-1.539 0.544-2.565-1.417-2.218-0.959 0.166-1.947 0.236-2.978 0.194-7.002-0.277-12.729-5.947-12.757-12.643-0.014-1.802 0.372-3.507 1.074-5.060 0.773-1.719-0.157-2.537-1.947-1.802-5.67 2.315-9.55 7.847-9.078 14.182z">
      </path>
    </symbol>

    <symbol id="icon-spher-moon" viewBox="0 0 32 32">
      <path fill="#fff" style="fill: var(--color1, #fff)"
        d="M4.708 4.708c6.26-6.26 16.391-6.28 22.627-0.043s6.217 16.367-0.043 22.627c-6.26 6.26-16.391 6.28-22.627 0.043s-6.217-16.367 0.043-22.627z">
      </path>
      <path fill="none" stroke="#000" style="stroke: var(--color2, #000)" stroke-linejoin="miter" stroke-linecap="round"
        stroke-miterlimit="4" stroke-width="2.1333" d="M25.203 6.354c5.118 5.47 5.099 14.358-0.043 19.853"></path>
    </symbol>

    <symbol id="icon-spher-sun" viewBox="0 0 32 32">
      <path fill="#fff" style="fill: var(--color1, #fff)"
        d="M27.292 4.708c-6.26-6.26-16.391-6.28-22.627-0.043s-6.217 16.367 0.043 22.627c6.26 6.26 16.391 6.28 22.627 0.043s6.217-16.367-0.043-22.627z">
      </path>
      <path fill="none" stroke="#000" style="stroke: var(--color2, #000)" stroke-linejoin="miter" stroke-linecap="round"
        stroke-miterlimit="4" stroke-width="2.1333" d="M6.797 6.354c-5.118 5.47-5.099 14.358 0.043 19.853"></path>
    </symbol>

    <symbol id="icon-sun" viewBox="0 0 32 32">
      <path fill="none" stroke="#fff" style="stroke: var(--color1, #fff)" stroke-linejoin="round" stroke-linecap="round"
        stroke-miterlimit="4" stroke-width="2"
        d="M16 26c5.523 0 10-4.477 10-10s-4.477-10-10-10c-5.523 0-10 4.477-10 10s4.477 10 10 10z"></path>
      <path fill="none" stroke="#fff" style="stroke: var(--color1, #fff)" stroke-linejoin="round" stroke-linecap="round"
        stroke-miterlimit="4" stroke-width="3"
        d="M25.814 6.186l0.182-0.182M6.004 25.996l0.182-0.182M16 2.112v-0.112M16 30v-0.112M2.112 16h-0.112M30 16h-0.112M6.186 6.186l-0.182-0.182M25.996 25.996l-0.182-0.182">
      </path>
    </symbol>

    <symbol id="icon-close" viewBox="0 0 32 32">
      <path fill="none" stroke="#f8f8f8" style="stroke: var(--color3, #f8f8f8)" stroke-linejoin="round"
        stroke-linecap="round" stroke-miterlimit="4" stroke-width="1.3333" d="M23 23l-14-14M23 9l-14 14"></path>
    </symbol>

    <symbol id="icon-heart" viewBox="0 0 34 32">
      <path fill="#f87719" style="fill: var(--color4, #f87719)"
        d="M17.231 31.705l-2.412-2.412c-8.96-7.926-14.818-13.268-14.818-19.815 0-5.342 4.135-9.477 9.477-9.477 2.929 0 5.858 1.378 7.754 3.618 1.895-2.24 4.825-3.618 7.754-3.618 5.342 0 9.477 4.135 9.477 9.477 0 6.548-5.858 11.889-14.818 19.815l-2.412 2.412z">
      </path>
    </symbol>

    <symbol id="icon-search" viewBox="0 0 32 32">
      <path
        d="M31.008 27.231l-7.58-6.447c-0.784-0.705-1.622-1.029-2.299-0.998 1.789-2.096 2.87-4.815 2.87-7.787 0-6.627-5.373-12-12-12s-12 5.373-12 12 5.373 12 12 12c2.972 0 5.691-1.081 7.787-2.87-0.031 0.677 0.293 1.515 0.998 2.299l6.447 7.58c1.104 1.226 2.907 1.33 4.007 0.23s0.997-2.903-0.23-4.007zM12 20c-4.418 0-8-3.582-8-8s3.582-8 8-8 8 3.582 8 8-3.582 8-8 8z">
      </path>
    </symbol>

    <symbol id="icon-heart" viewBox="0 0 34 32">
      <path fill="#f87719" style="fill: var(--color1, #f87719)"
        d="M17.231 31.705l-2.412-2.412c-8.96-7.926-14.818-13.268-14.818-19.815 0-5.342 4.135-9.477 9.477-9.477 2.929 0 5.858 1.378 7.754 3.618 1.895-2.24 4.825-3.618 7.754-3.618 5.342 0 9.477 4.135 9.477 9.477 0 6.548-5.858 11.889-14.818 19.815l-2.412 2.412z">
      </path>
      <symbol id="icon-Ellipse-2" viewBox="0 0 13 32">
        <path stroke-linejoin="miter" stroke-linecap="round" stroke-miterlimit="4" stroke-width="3.2"
          d="M4.193 3.795c6.868 6.797 6.863 17.82-0.011 24.622"></path>
      </symbol>
    </symbol>

    <symbol id="icon-arrow-right-on-btn" viewBox="0 0 32 32">
      <path
        d="M8.51 3.254c-0.326 0.376-0.51 0.886-0.51 1.417s0.183 1.041 0.51 1.417l8.62 9.924-8.62 9.924c-0.317 0.378-0.493 0.884-0.489 1.41s0.187 1.029 0.51 1.4 0.76 0.583 1.216 0.587c0.457 0.005 0.896-0.198 1.225-0.563l9.851-11.341c0.326-0.376 0.51-0.886 0.51-1.417s-0.183-1.041-0.51-1.417l-9.851-11.341c-0.327-0.376-0.769-0.587-1.231-0.587s-0.905 0.211-1.231 0.587z">
      </path>
    </symbol>

    <symbol id="github-mark" viewBox="0 0 33 32">
      <path
        d="M16.285 0c-9.005 0-16.285 7.333-16.285 16.406 0 7.252 4.664 13.391 11.135 15.563 0.809 0.163 1.105-0.353 1.105-0.787 0-0.38-0.027-1.684-0.027-3.042-4.53 0.978-5.473-1.956-5.473-1.956-0.728-1.901-1.807-2.39-1.807-2.39-1.483-1.005 0.108-1.005 0.108-1.005 1.645 0.109 2.508 1.684 2.508 1.684 1.456 2.499 3.801 1.793 4.745 1.358 0.135-1.059 0.566-1.793 1.025-2.2-3.613-0.38-7.414-1.793-7.414-8.094 0-1.793 0.647-3.259 1.671-4.4-0.162-0.407-0.728-2.092 0.162-4.346 0 0 1.375-0.435 4.475 1.684 1.221-0.343 2.622-0.542 4.070-0.543h0.001c1.375 0 2.777 0.19 4.071 0.543 3.101-2.119 4.476-1.684 4.476-1.684 0.89 2.254 0.323 3.939 0.162 4.346 1.052 1.141 1.672 2.607 1.672 4.4 0 6.302-3.801 7.687-7.441 8.094 0.593 0.516 1.105 1.494 1.105 3.042 0 2.2-0.027 3.966-0.027 4.509 0 0.435 0.297 0.951 1.105 0.788 6.471-2.173 11.135-8.312 11.135-15.564 0.027-9.072-7.28-16.406-16.258-16.406z">
      </path>
    </symbol>

    <symbol id="icon-telegram" viewBox="0 0 32 32">
      <path
        d="M29.528 4.193c-0.48-0.407-1.234-0.465-2.013-0.152h-0.001c-0.82 0.329-23.207 9.932-24.118 10.324-0.166 0.058-1.613 0.598-1.464 1.801 0.133 1.085 1.297 1.534 1.439 1.586l5.692 1.949c0.378 1.257 1.77 5.894 2.077 6.885 0.192 0.618 0.505 1.429 1.053 1.596 0.481 0.186 0.96 0.016 1.27-0.227l3.48-3.228 5.617 4.381 0.134 0.080c0.381 0.169 0.747 0.253 1.096 0.253 0.269 0 0.528-0.051 0.775-0.152 0.842-0.346 1.178-1.148 1.213-1.238l4.196-21.809c0.256-1.165-0.1-1.757-0.444-2.049zM14.080 20.48l-1.92 5.12-1.92-6.4 14.72-10.88-10.88 12.16z">
      </path>
    </symbol>
  </defs>
</svg>