<svg width="36" height="37" viewBox="0 0 36 37" fill="none" xmlns="http://www.w3.org/2000/svg">
<g clip-path="url(#clip0_4683_131)">
<path d="M6.93937 0.899403C6.64615 1.15302 5.80724 2.90303 5.50588 3.85834C5.14751 5.04191 5.02534 5.9296 5.07421 7.15544C5.13937 8.90544 5.57919 10.2327 6.54842 11.6192C6.80091 11.9827 7.00453 12.2955 7.00453 12.3209C7.00453 12.3378 6.84977 12.3547 6.6543 12.3547C5.81538 12.3547 4.24344 12.6337 3.03801 12.9972C1.12398 13.5721 0 14.5781 0 15.7025C0 16.0999 0.358371 16.7762 0.741176 17.1228C1.48235 17.7907 3.10317 18.4248 4.84615 18.7291C5.44887 18.839 7.24072 19.025 7.63982 19.0335C7.71312 19.0335 7.73756 19.4223 7.73756 20.6989C7.73756 21.7979 7.77828 22.6518 7.85973 23.176C8.15294 25.0528 9.06516 27.0395 10.2706 28.4429L10.686 28.9248L10.409 29.3728C10.0018 30.0069 9.84706 30.4888 9.79819 31.2074C9.67602 32.932 10.7511 34.4622 12.8281 35.5359C16.7864 37.5902 22.9357 36.7871 25.2407 33.9127C26.3647 32.5093 26.495 30.903 25.6072 29.4489L25.3303 29.0008L25.8272 28.4006C26.7557 27.2847 27.3584 26.1687 27.8145 24.7569C28.1973 23.5564 28.3439 22.3982 28.3439 20.5636C28.3439 19.7267 28.3683 19.0335 28.4091 19.0335C28.7837 19.025 30.5837 18.8306 31.1538 18.7291C32.905 18.4248 34.4932 17.7992 35.2588 17.1228C35.6416 16.7762 36 16.0999 36 15.7025C36 14.4513 34.7294 13.4368 32.3674 12.8281C31.5937 12.6252 30.1357 12.3801 29.4272 12.3378L29.0932 12.3124L29.4597 11.8052C29.9158 11.188 30.486 9.98757 30.7059 9.20133C31.3249 6.92718 30.9421 4.28104 29.6145 1.75327C29.0606 0.704956 28.6778 0.459789 28.2299 0.874039C28.0588 1.03467 27.9855 1.25447 27.8226 2.04916C27.3176 4.57693 26.381 6.58056 25.0127 8.06003L24.41 8.71945H17.9674H11.5249L10.9873 8.13612C9.65158 6.6651 8.68235 4.58539 8.17738 2.04916C8.01448 1.25447 7.94118 1.03467 7.77014 0.874039C7.50136 0.628872 7.24072 0.637325 6.93937 0.899403ZM7.9819 5.91269C8.41358 6.85955 8.95113 7.74723 9.58643 8.56728L10.0914 9.21824L9.56199 9.61559C9.06516 9.99602 8.60091 10.5371 8.24253 11.1542L8.08778 11.4332L7.69683 10.9006C6.36109 9.05761 6.02715 6.80037 6.73575 4.45858C7.07783 3.32573 7.06968 3.33419 7.37919 4.31486C7.52579 4.78829 7.80272 5.50689 7.9819 5.91269ZM29.1828 4.12887C29.5167 5.13491 29.6471 5.93805 29.6471 6.9779C29.6471 8.51655 29.2398 9.81848 28.3846 10.9851L28.0018 11.5093L27.7167 11.0274C27.3828 10.4356 26.8127 9.81848 26.2914 9.46341C26.0715 9.31969 25.9005 9.17597 25.9005 9.15906C25.9005 9.1337 26.0552 8.93926 26.2507 8.7279C27.1548 7.72186 28.124 5.91269 28.6045 4.35713C28.7511 3.87525 28.8977 3.47791 28.9222 3.47791C28.9466 3.47791 29.0688 3.7738 29.1828 4.12887ZM25.0208 10.3088C25.9249 10.6893 26.7882 11.7798 26.9267 12.7013C27 13.2086 27.171 13.5298 27.391 13.5806C27.4887 13.5975 28.1647 13.6566 28.8896 13.7074C31.4634 13.8765 33.4914 14.426 34.3548 15.1784C34.7538 15.5335 34.7131 15.8294 34.2326 16.1929C33.2715 16.9199 31.1946 17.4694 29.0769 17.5624C27.676 17.6216 27.3828 17.6639 27.1955 17.8583C27.057 18.0021 27.0407 18.1542 27.0407 19.6844C27.0407 21.7557 26.9348 22.9477 26.6742 23.9115C26.3077 25.2219 25.5828 26.6168 24.7357 27.6059L24.3855 28.0117L23.6606 27.5806C22.781 27.0564 21.9584 26.7182 20.9729 26.49C17.886 25.7545 14.4733 26.2025 12.1765 27.6482L11.6471 27.9864L11.3131 27.589C10.857 27.0564 10.1403 25.9151 9.8552 25.2726C9.22806 23.8185 9.04072 22.6349 9.04072 20.031C9.04072 17.5033 9.17104 17.6893 7.29774 17.5878C4.90317 17.461 3.07873 17.0298 1.93032 16.3028C1.08326 15.7617 1.22172 15.2798 2.40271 14.7134C3.53484 14.1639 5.0905 13.8342 7.24887 13.6989C8.9267 13.589 8.96742 13.5637 9.12217 12.7521C9.35023 11.5262 10.2543 10.5117 11.3946 10.1905C11.6796 10.1059 13.276 10.089 18.1629 10.0975L24.5566 10.1144L25.0208 10.3088ZM20.4434 27.8088C22.4389 28.2992 23.9294 29.2122 24.5729 30.345C24.7276 30.6071 24.7928 30.8777 24.8253 31.2919C24.8579 31.8076 24.8335 31.9344 24.638 32.3571C23.7339 34.2762 20.4109 35.5443 17.0308 35.2569C12.9665 34.9187 10.295 32.653 11.3457 30.4296C11.9158 29.2291 13.8462 28.0793 15.8824 27.7412C16.2163 27.6905 16.5502 27.6313 16.6154 27.6144C16.6805 27.5975 17.4136 27.5975 18.2443 27.6144C19.3765 27.6397 19.9222 27.6905 20.4434 27.8088Z" fill="black"/>
<path d="M12.364 14.5444C11.859 14.7135 11.5169 14.9333 11.0608 15.3899C10.6617 15.7703 10.6291 16.2184 10.9631 16.4889C11.2726 16.7425 11.5658 16.7087 11.9404 16.379C12.4128 15.9647 12.7793 15.7956 13.2355 15.7956C13.6916 15.7872 14.0418 15.9478 14.5305 16.379C14.9051 16.7087 15.1983 16.7425 15.5079 16.4889C15.6707 16.3536 15.7196 16.2437 15.7196 15.9901C15.7196 15.728 15.6626 15.6097 15.3775 15.3222C14.5712 14.5106 13.3739 14.1978 12.364 14.5444Z" fill="black"/>
<path d="M21.8606 14.5356C21.3393 14.73 20.6714 15.1696 20.4026 15.4993C20.142 15.8206 20.1339 16.1841 20.4026 16.4547C20.6714 16.7421 20.9972 16.7252 21.3882 16.4039C22.3492 15.6093 23.066 15.5839 23.9538 16.3194C24.1818 16.5138 24.4425 16.666 24.5239 16.666C24.923 16.666 25.2488 16.3109 25.2488 15.8882C25.2488 15.6177 24.5728 14.9921 23.9619 14.6962C23.2859 14.3665 22.4796 14.3073 21.8606 14.5356Z" fill="black"/>
<path d="M13.5448 30.1846C13.3086 30.4129 13.2272 30.7426 13.3493 31.0047C13.4389 31.216 13.5774 31.3006 14.1394 31.4528C14.3919 31.5204 14.4978 31.6049 14.5874 31.8163C14.7014 32.0953 14.7095 32.0953 15.3367 32.1206L15.9638 32.146V31.9093C15.9557 31.5711 15.7683 31.0808 15.524 30.7426C15.2389 30.3537 14.7421 30.1001 14.1801 30.0494C13.7973 30.0156 13.6996 30.0325 13.5448 30.1846Z" fill="black"/>
<path d="M21.3233 30.125C20.916 30.2349 20.3296 30.7844 20.1667 31.2156C20.0934 31.41 20.0201 31.7567 20.012 31.9849C19.9957 32.3484 20.0282 32.433 20.2237 32.6105C20.7043 33.0332 21.3396 32.7035 21.3396 32.0272C21.3396 31.6975 21.5839 31.4692 22.0156 31.3847C22.4717 31.3001 22.6346 31.1141 22.6427 30.683C22.6427 30.1166 22.1377 29.8967 21.3233 30.125Z" fill="black"/>
</g>
<defs>
<clipPath id="clip0_4683_131">
<rect width="36" height="36" fill="white" transform="translate(0 0.683105)"/>
</clipPath>
</defs>
</svg>
