<svg width="36" height="36" viewBox="0 0 36 36" fill="none" xmlns="http://www.w3.org/2000/svg">
<path d="M15.9495 0.61517C11.4785 1.27821 7.79691 3.76058 6.4423 7.01111C6.01016 8.03802 5.89381 8.66872 5.89381 9.90586C5.90212 10.8196 5.93536 11.1592 6.07664 11.6524C6.36751 12.6227 6.57527 13.116 7.00742 13.8113L7.40632 14.4582L6.95755 15.0081C3.40897 19.423 3.01837 25.6329 5.97691 30.5249C7.08221 32.3604 8.88559 34.1635 10.6474 35.2147L11.171 35.522L18.3346 35.4654L25.5066 35.4007L25.8473 35.2147C27.0357 34.5436 28.7144 33.0477 29.6535 31.8348C31.0663 29.9912 31.9888 27.8404 32.3794 25.5116C32.5123 24.6788 32.5123 22.2126 32.3711 21.4283C31.9472 19.0106 31.0414 16.9406 29.612 15.1051C29.3377 14.7574 29.1217 14.4663 29.1217 14.442C29.1217 14.4259 29.2712 14.1752 29.4458 13.8922C29.853 13.2453 30.2186 12.4125 30.4181 11.6848C30.6425 10.8762 30.6425 8.8547 30.4181 8.04611C29.6203 5.17562 27.2269 2.78219 23.8445 1.46419C22.8971 1.09224 21.2765 0.69603 20.2294 0.566654C19.2571 0.453453 16.8554 0.477711 15.9495 0.61517ZM21.0106 1.93317C25.4484 2.79836 28.6978 5.51522 29.2962 8.86278C29.4291 9.61477 29.346 10.8923 29.1217 11.6039C28.8973 12.2993 28.4818 13.116 27.9914 13.8113C27.792 14.0944 27.6258 14.4178 27.6258 14.5229C27.6258 14.628 27.8003 14.9029 28.0496 15.1779C30.1272 17.4823 31.2242 20.369 31.2242 23.4902C31.2159 27.0399 29.853 30.1529 27.2269 32.5949C26.7781 33.0153 26.1382 33.5409 25.7975 33.7673L25.1742 34.1878L18.3014 34.2121L11.4369 34.2444L10.905 33.9048C8.977 32.6515 7.24011 30.5815 6.27609 28.3821C5.06276 25.6006 4.9381 22.3743 5.92705 19.4796C6.45061 17.9756 7.14869 16.7465 8.21244 15.4528C8.64458 14.9353 8.84404 14.628 8.84404 14.4825C8.84404 14.3612 8.62796 13.965 8.34541 13.5526C7.34815 12.1052 6.94093 10.4961 7.18194 8.97598C7.43125 7.43966 8.12933 6.17826 9.41746 4.92495C11.0962 3.29969 13.4397 2.22426 16.1905 1.81997C17.3291 1.65017 19.8471 1.71485 21.0106 1.93317Z" fill="black"/>
<path d="M16.3233 3.35635C12.916 3.91428 10.2484 5.80638 9.37576 8.28875C9.17631 8.84667 9.14307 9.06499 9.14307 9.86549C9.14307 10.666 9.17631 10.8843 9.37576 11.4422C9.50042 11.798 9.73311 12.2913 9.89101 12.5419C10.3232 13.2373 10.5143 13.2616 11.3703 12.7441C12.6501 11.9597 14.1211 11.3856 15.6502 11.0703C16.6807 10.8601 18.6586 10.7792 19.7805 10.9086C21.534 11.1107 23.4371 11.7414 24.9579 12.639C25.3901 12.8896 25.8306 13.0999 25.9386 13.0999C26.5702 13.0999 27.3763 11.2805 27.3763 9.86549C27.3763 6.72008 24.3679 4.02748 20.1046 3.35635C19.1988 3.2108 17.1959 3.2108 16.3233 3.35635ZM20.437 4.65009C21.8664 4.95736 23.1795 5.53954 24.1685 6.3077C25.4981 7.33461 26.2128 8.76581 26.0965 10.1485C26.0549 10.6983 25.8472 11.4422 25.7225 11.5231C25.6893 11.5393 25.2239 11.3452 24.692 11.0865C23.5867 10.5528 22.3318 10.1242 21.0603 9.84932C20.2874 9.68761 19.9633 9.66335 18.2348 9.67143C16.5311 9.67143 16.1737 9.69569 15.4341 9.84932C14.1543 10.1242 13.157 10.4639 11.9271 11.046C10.6888 11.6363 10.7553 11.6444 10.5309 10.9167C10.2401 9.97061 10.4229 8.7173 10.988 7.77125C11.2872 7.26992 12.1099 6.43708 12.7083 6.0247C13.8468 5.24036 14.8441 4.88458 16.9882 4.49646C17.4286 4.4156 19.8719 4.5288 20.437 4.65009Z" fill="black"/>
<path d="M19.0827 15.0808C18.85 15.3719 18.85 15.6468 19.091 15.8813C19.2489 16.035 19.4068 16.0754 19.9802 16.1158C21.0938 16.1967 22.1576 16.5201 23.1133 17.07C23.7947 17.4743 24.8335 18.4526 25.2989 19.1561C25.9887 20.1669 26.4624 21.6142 26.4624 22.6816C26.4624 23.0535 26.4956 23.1667 26.6702 23.3284C26.9361 23.5953 27.2851 23.5953 27.5428 23.3284C27.7256 23.1425 27.7339 23.0939 27.684 22.3015C27.4513 18.388 24.1022 15.1213 20.0966 14.9029L19.2655 14.8544L19.0827 15.0808Z" fill="black"/>
</svg>
